<svg xmlns="http://www.w3.org/2000/svg" xmlns:xlink="http://www.w3.org/1999/xlink" width="193.091" height="193.091" viewBox="0 0 193.091 193.091">
  <defs>
    <linearGradient id="linear-gradient" x1="0.5" x2="0.5" y2="1" gradientUnits="objectBoundingBox">
      <stop offset="0" stop-color="#d7c8dd"/>
      <stop offset="0.465" stop-color="#3c096c"/>
      <stop offset="1" stop-color="#3c096c"/>
    </linearGradient>
  </defs>
  <g id="Group_36" data-name="Group 36" transform="translate(-2079.461 1105.005)">
    <g id="Group_14" data-name="Group 14" transform="translate(2079.461 -1105.005)">
      <circle id="Ellipse_6" data-name="Ellipse 6" cx="96.546" cy="96.546" r="96.546" fill="url(#linear-gradient)"/>
      <path id="Path_6" data-name="Path 6" d="M413.2,156.59c-3.32,9.5-7.8,17.93-13.862,22.962-21,17.422-29.911,10.746-32.225,7.439s1.189-8.655-5.621-9.919-1.653-8.762-1.653-8.762c-8.828.7-7.733-2.612-6.172-5.732a5.866,5.866,0,0,0,.882-2.857s1.151-.175-4.794-.008-6.943-2.149-3.472-13.06a35.407,35.407,0,0,0,1.55-7.236l-1.89-1.845a47.213,47.213,0,0,1-13.76-36.931c1.05-13.518,10.337-27.119,21.409-35,.1-.07.2-.148.315-.23q.381-.292.77-.573a37.056,37.056,0,0,1,3.177-2.059c-.087.021-.176.045-.263.067-8.52,2.121-16.708,5.383-22.824,9.858-13.248,9.688-27.994,24.687-34.4,52.71-11.414,39.1,18.747,87.927,56.532,98.217,18.71,5.1,44.358,3.068,55.773-14.764C422.554,193.431,425.481,173.1,413.2,156.59Z" transform="translate(-282.055 -47.872)" fill="#3c096c"/>
      <g id="Group_8" data-name="Group 8" transform="translate(115.743 71.105)">
        <path id="Path_8" data-name="Path 8" d="M373.44,114.031l15.172-8.76,15.172,8.76V131.55l-15.172,8.76-15.172-8.76Z" transform="translate(-373.44 -105.271)" fill="none" stroke="#fff" stroke-linecap="round" stroke-linejoin="round" stroke-width="2" stroke-dasharray="107 23"/>
        <path id="Path_9" data-name="Path 9" d="M381.207,134.1l-7.232-12.527,7.232-12.526h14.464l3.9,6.753,3.333,5.774L395.672,134.1Z" transform="translate(-373.267 -104.054)" fill="none" stroke="#fff" stroke-linecap="round" stroke-linejoin="round" stroke-width="1.9" stroke-dasharray="107 23"/>
      </g>
      <g id="Group_11" data-name="Group 11" transform="translate(92.843 89.14)">
        <g id="Group_10" data-name="Group 10">
          <line id="Line_6" data-name="Line 6" x2="7.406" transform="translate(0 3.703)" fill="none" stroke="#fff" stroke-linecap="round" stroke-linejoin="round" stroke-width="1.9" stroke-dasharray="107 23"/>
          <line id="Line_7" data-name="Line 7" y2="7.406" transform="translate(3.703)" fill="none" stroke="#fff" stroke-linecap="round" stroke-linejoin="round" stroke-width="1.9" stroke-dasharray="107 23"/>
        </g>
      </g>
      <g id="Group_13" data-name="Group 13" transform="translate(112.04 50.274)">
        <g id="Group_12" data-name="Group 12">
          <line id="Line_8" data-name="Line 8" x2="7.406" transform="translate(0 3.703)" fill="none" stroke="#fff" stroke-linecap="round" stroke-linejoin="round" stroke-width="1.9" stroke-dasharray="107 23"/>
          <line id="Line_9" data-name="Line 9" y2="7.406" transform="translate(3.703)" fill="none" stroke="#fff" stroke-linecap="round" stroke-linejoin="round" stroke-width="1.9" stroke-dasharray="107 23"/>
        </g>
      </g>
      <path id="Path_10" data-name="Path 10" d="M297.117,117.594c-11.414,39.1,18.747,87.927,56.532,98.217,18.71,5.1,44.358,3.068,55.773-14.764,9.882-15.435,12.809-35.762.524-52.276-3.32,9.5-7.8,17.93-13.862,22.962-21,17.422-29.911,10.746-32.225,7.439s1.189-8.655-5.621-9.919-1.653-8.762-1.653-8.762c-8.828.7-7.733-2.612-6.172-5.732a5.867,5.867,0,0,0,.882-2.857s1.151-.175-4.794-.008-6.943-2.149-3.472-13.06.992-17.193-1.653-28.1c-1.829-7.548-2.948-12.089-1.657-17.126" transform="translate(-283.104 -37.928)" fill="none" stroke="#fff" stroke-linecap="round" stroke-linejoin="round" stroke-width="2"/>
      <path id="Path_11" data-name="Path 11" d="M330.67,78.227c5.876-10.7,17.514-16.208,29.589-18.022a64.5,64.5,0,0,1,35.66,4.555,94.28,94.28,0,0,1,56.11,88.761" transform="translate(-271.492 -48.945)" fill="none" stroke="#fff" stroke-linecap="round" stroke-linejoin="round" stroke-width="2"/>
      <path id="Path_12" data-name="Path 12" d="M331.78,73.505a30.845,30.845,0,0,0,1.428,34.071c5.719,7.6,14.777,12.091,24.021,14.335s18.833,2.5,28.32,3.2" transform="translate(-272.569 -44.412)" fill="none" stroke="#fff" stroke-linecap="round" stroke-linejoin="round" stroke-width="2"/>
    </g>
    <text id="MA" transform="translate(2200.138 -1013.507)" fill="#fff" font-size="14" font-family="TwCenMT-Regular, Tw Cen MT"><tspan x="0" y="0">MA</tspan></text>
  </g>
</svg>
